<svg viewBox="0 0 240 80" xmlns="http://www.w3.org/2000/svg">
  <!-- Dashboard icon -->
  <g transform="translate(20, 20)">
    <rect x="0" y="0" width="32" height="32" rx="4" fill="#FF9933" />
    <rect x="6" y="6" width="20" height="8" rx="2" fill="#1a2e5a" />
    <rect x="6" y="18" width="9" height="8" rx="2" fill="#1a2e5a" />
    <rect x="17" y="18" width="9" height="8" rx="2" fill="#1a2e5a" />
  </g>
  
  <!-- Main Text: Nexus -->
  <g transform="translate(45, 20)">
    <path d="M10,40 L18,8 L27,8 L35,40 L26,40 L24,32 L14,32 L12,40 Z M16,26 L22,26 L19,14 Z" fill="#1a2e5a" />
    <path d="M36,40 L36,8 L44,8 L52,28 L52,8 L60,8 L60,40 L52,40 L44,20 L44,40 Z" fill="#1a2e5a" />
    <path d="M64,40 L64,8 L88,8 L88,16 L73,16 L73,20 L87,20 L87,28 L73,28 L73,32 L88,32 L88,40 Z" fill="#1a2e5a" />
    <path d="M92,40 L92,8 L101,8 L109,28 L117,8 L126,8 L126,40 L118,40 L118,19 L109,40 L109,40 L100,19 L100,40 Z" fill="#1a2e5a" />
    <path d="M130,40 L139,8 L150,8 L159,40 L149,40 L148,35 L141,35 L140,40 Z M143,28 L146,28 L144,18 Z" fill="#1a2e5a" />
  </g>
  
  <!-- Tagline: HUB in orange -->
  <text x="200" y="30" font-family="Arial, sans-serif" font-weight="700" font-size="16" fill="#FF9933">HUB</text>
</svg>